<svg id="Ebene_1" data-name="Ebene 1" xmlns="http://www.w3.org/2000/svg" viewBox="0 0 170.65 48.82"><defs><style>.cls-1{fill:#e72061;}.cls-2{stroke:#e72061;stroke-miterlimit:10;stroke-width:0.6px;}</style></defs><path class="cls-1" d="M47.85,9H36.75V17.8h12.1l-.12.48H36.23V.42H48.38V.9H36.75V8.49h11.1Z" transform="translate(-20.35 -0.42)"/><path class="cls-1" d="M62.05,14.42c0,1.24,0,3.33,0,3.86h-.52c0-.45,0-2.47,0-3.59-.82,2.64-2.41,3.89-5.22,3.89-2.4,0-5-1.1-5-5.16V5.78h.52v7.69c0,2.49,1.22,4.61,4.46,4.61,3.76,0,5.2-2.79,5.2-6.35V5.78h.53Z" transform="translate(-20.35 -0.42)"/><path class="cls-1" d="M66.68,10c0-1.91,0-3.33,0-4.25h.5c0,.62.08,2.71,0,3.68a5.78,5.78,0,0,1,5.2-4V6a5.55,5.55,0,0,0-5.2,5.57v6.73h-.52Z" transform="translate(-20.35 -0.42)"/><path class="cls-1" d="M86.42,12c0,3.43-2.16,6.65-6.37,6.65a6.21,6.21,0,0,1-6.3-6.53A6.34,6.34,0,1,1,86.42,12ZM74.3,12.1a5.76,5.76,0,0,0,5.8,6c3.66,0,5.78-2.84,5.78-6.15a5.81,5.81,0,0,0-5.81-6.1C76.56,5.9,74.3,8.62,74.3,12.1Z" transform="translate(-20.35 -0.42)"/><path class="cls-1" d="M90.63,15v9.07h-.52V9.44c0-1.72,0-2.84,0-3.66h.5c0,.17,0,2.19,0,3.51a5.78,5.78,0,0,1,5.68-3.81,6.09,6.09,0,0,1,6.1,6.32c0,4.34-2.74,6.78-6.18,6.78A5.53,5.53,0,0,1,90.63,15Zm11.23-3.18A5.59,5.59,0,0,0,96.26,6c-3.34,0-5.68,2.46-5.68,6,0,3.91,2.19,6,5.75,6C99.4,18.08,101.86,15.71,101.86,11.83Z" transform="translate(-20.35 -0.42)"/><path class="cls-1" d="M115.61,15.51a21.85,21.85,0,0,0,.15,2.77h-.5a14.9,14.9,0,0,1-.18-2.72c-.69,1.92-2.31,3.07-5.43,3.07-3.51,0-4.65-2.12-4.65-3.81,0-3.09,2.91-4,6.45-4,2.24,0,2.94,0,3.63,0V9.64c0-1.95-1-3.74-4.3-3.74-3.09,0-4.19,1.45-4.54,3.36h-.52c.3-2,1.54-3.83,5.11-3.83s4.78,1.92,4.78,4.13Zm-.53-4.16c-1,0-2.11,0-3.66,0-2.46,0-5.87.37-5.87,3.49,0,2,1.64,3.31,4.1,3.31,4,0,5.43-2,5.43-5Z" transform="translate(-20.35 -0.42)"/><path class="cls-1" d="M38.79,41.16c0,1.2.6,2.37,1.92,2.37a1.51,1.51,0,0,0,1.67-1H45a4.2,4.2,0,0,1-4.4,3.11c-3.16,0-4.53-2.37-4.53-4.88,0-3,1.55-5.16,4.63-5.16,3.29,0,4.41,2.38,4.41,4.78a5.23,5.23,0,0,1,0,.81Zm3.7-1.64c0-1.11-.46-2.05-1.76-2.05s-1.78.88-1.89,2.05Z" transform="translate(-20.35 -0.42)"/><path class="cls-1" d="M47,38.21c0-.82,0-1.71,0-2.42h2.57a9.27,9.27,0,0,1,.1,1.22,3,3,0,0,1,2.79-1.44c1.92,0,3.17,1.3,3.17,3.71v6.1H53v-5.8c0-1.08-.36-1.86-1.53-1.86s-1.78.63-1.78,2.32v5.34H47Z" transform="translate(-20.35 -0.42)"/><path class="cls-1" d="M60.11,41.16c0,1.2.61,2.37,1.93,2.37a1.51,1.51,0,0,0,1.67-1h2.66A4.2,4.2,0,0,1,62,45.61c-3.16,0-4.53-2.37-4.53-4.88,0-3,1.54-5.16,4.62-5.16,3.3,0,4.42,2.38,4.42,4.78a5.23,5.23,0,0,1,0,.81Zm3.71-1.64c0-1.11-.47-2.05-1.76-2.05s-1.79.88-1.89,2.05Z" transform="translate(-20.35 -0.42)"/><path class="cls-1" d="M68.34,38.39c0-1,0-1.8,0-2.6h2.61C71,36,71,37,71,37.48a3.06,3.06,0,0,1,3.07-1.91V38.1c-1.92-.05-3.07.47-3.07,3.1v4.18H68.34Z" transform="translate(-20.35 -0.42)"/><path class="cls-1" d="M84.16,44.21c0,3.08-1.13,5-4.77,5s-4.19-2-4.28-3h2.71a1.52,1.52,0,0,0,1.69,1.11c1.73,0,2-1.05,2-2.93v-.46a2.83,2.83,0,0,1-2.7,1.35c-2.53,0-4-2.07-4-4.65,0-3,1.8-5,4.2-5,1.64,0,2.33.78,2.47,1.22,0-.26.09-.84.11-1h2.51c0,.86,0,1.83,0,2.75ZM77.62,40.5c0,1.65.82,2.63,2,2.63,1.6,0,2-1.1,2-2.71s-.28-2.72-2-2.72C78.52,37.7,77.62,38.59,77.62,40.5Z" transform="translate(-20.35 -0.42)"/><path class="cls-1" d="M86.52,31.86h2.65v2.37H86.52Zm0,3.93h2.65v9.59H86.52Z" transform="translate(-20.35 -0.42)"/><path class="cls-1" d="M93.67,41.16c0,1.2.6,2.37,1.93,2.37a1.51,1.51,0,0,0,1.67-1h2.66a4.2,4.2,0,0,1-4.4,3.11c-3.16,0-4.53-2.37-4.53-4.88,0-3,1.54-5.16,4.62-5.16,3.29,0,4.41,2.38,4.41,4.78a7,7,0,0,1,0,.81Zm3.7-1.64c0-1.11-.46-2.05-1.75-2.05s-1.79.88-1.89,2.05Z" transform="translate(-20.35 -0.42)"/><path class="cls-1" d="M109.8,42.91a20.44,20.44,0,0,0,.13,2.47h-2.54a3.86,3.86,0,0,1-.14-.93,2.82,2.82,0,0,1-2.69,1.16,3,3,0,0,1-3.29-3c0-2.19,1.76-3.2,4.57-3.2h1.37v-.58c0-.68-.25-1.35-1.48-1.35s-1.37.47-1.49,1.17h-2.52c.14-1.71,1.19-3.09,4.11-3.07,2.57,0,4,1,4,3.3ZM107.21,41h-1.08c-1.6,0-2.2.49-2.2,1.41a1.24,1.24,0,0,0,1.38,1.28c1.69,0,1.9-1.17,1.9-2.44Z" transform="translate(-20.35 -0.42)"/><path class="cls-1" d="M111.08,35.79h1.48V33.2h2.66v2.59h1.87v2h-1.87v4.73c0,.73.22,1,1,1a4.3,4.3,0,0,0,.6,0v1.83a5.93,5.93,0,0,1-1.78.18c-1.87,0-2.49-1-2.49-2.68v-5h-1.48Z" transform="translate(-20.35 -0.42)"/><path class="cls-1" d="M118.61,45.38V31.86h2.66V45.38Z" transform="translate(-20.35 -0.42)"/><path class="cls-1" d="M131.53,42.91a22.82,22.82,0,0,0,.13,2.47h-2.54a3.87,3.87,0,0,1-.13-.93,2.84,2.84,0,0,1-2.7,1.16,3,3,0,0,1-3.28-3c0-2.19,1.75-3.2,4.56-3.2h1.37v-.58c0-.68-.24-1.35-1.48-1.35s-1.36.47-1.48,1.17h-2.53c.14-1.71,1.2-3.09,4.11-3.07,2.57,0,4,1,4,3.3ZM128.94,41h-1.08c-1.6,0-2.19.49-2.19,1.41a1.23,1.23,0,0,0,1.38,1.28c1.69,0,1.89-1.17,1.89-2.44Z" transform="translate(-20.35 -0.42)"/><path class="cls-1" d="M135.73,42.5a1.66,1.66,0,0,0,1.81,1.19c1,0,1.34-.35,1.34-.93s-.41-.86-1.79-1.19c-3.12-.77-3.63-1.74-3.63-3.1s1-2.9,3.89-2.9,3.89,1.59,4,2.89H138.8c-.09-.36-.32-1-1.57-1-.88,0-1.16.39-1.16.82s.29.71,1.85,1.07c3.2.75,3.65,1.85,3.65,3.25,0,1.59-1.2,3-4.13,3s-4.11-1.41-4.32-3.11Z" transform="translate(-20.35 -0.42)"/><line class="cls-2" y1="26.51" x2="170.65" y2="26.51"/></svg>