<svg id="Ebene_1" data-name="Ebene 1" xmlns="http://www.w3.org/2000/svg" viewBox="0 0 293.99 108.33"><defs><style>.cls-1,.cls-2{fill:#fff;stroke:#fff;stroke-miterlimit:10;}.cls-1{stroke-width:2.18px;}</style></defs><line class="cls-1" x1="1.09" x2="1.09" y2="108.33"/><path class="cls-2" d="M384.68,489H365.51v15.27H386.4l-.21.81H364.6V474.21h21V475H365.51v13.11h19.17Z" transform="translate(-335.9 -408.99)"/><path class="cls-2" d="M409.49,498.38c0,2.15.05,5.76.05,6.66h-.91c0-.77-.08-4.25,0-6.19-1.42,4.56-4.17,6.71-9,6.71-4.13,0-8.55-1.89-8.55-8.9v-13.2h.9v13.28c0,4.3,2.11,8,7.69,8,6.5,0,9-4.82,9-11V483.46h.9Z" transform="translate(-335.9 -408.99)"/><path class="cls-2" d="M417.79,490.81c0-3.31,0-5.76,0-7.35h.86c0,1.07.13,4.68.09,6.36a10,10,0,0,1,9-7v.95c-4.86.09-9,4.52-9,9.63V505h-.91Z" transform="translate(-335.9 -408.99)"/><path class="cls-2" d="M452.19,494.16c0,5.94-3.74,11.48-11,11.48-6.58,0-10.88-5-10.88-11.26,0-6.71,4.64-11.53,11-11.53C448,482.85,452.19,488.14,452.19,494.16Zm-20.94.22c0,6.15,4.39,10.45,10,10.45,6.32,0,10-4.9,10-10.62s-4-10.54-10-10.54S431.25,488.36,431.25,494.38Z" transform="translate(-335.9 -408.99)"/><path class="cls-2" d="M459.76,499.41v15.65h-.9V489.78c0-3,0-4.9,0-6.32h.86c0,.3.08,3.78.08,6.06a10,10,0,0,1,9.8-6.58c5.85,0,10.54,4.56,10.54,10.92,0,7.48-4.73,11.7-10.66,11.7C464,505.56,461.22,502.89,459.76,499.41Zm19.39-5.5c0-5.12-3.52-10.11-9.67-10.11-5.76,0-9.8,4.26-9.8,10.45,0,6.75,3.78,10.45,9.93,10.45C474.9,504.7,479.15,500.61,479.15,493.91Z" transform="translate(-335.9 -408.99)"/><path class="cls-2" d="M503.19,500.27a36.62,36.62,0,0,0,.26,4.77h-.86a26,26,0,0,1-.3-4.68c-1.21,3.31-4,5.28-9.38,5.28-6.06,0-8-3.65-8-6.57,0-5.34,5-6.84,11.14-6.84,3.87,0,5.07,0,6.28,0v-2.15c0-3.35-1.68-6.45-7.44-6.45-5.33,0-7.22,2.5-7.83,5.81h-.9c.52-3.49,2.67-6.63,8.82-6.63s8.25,3.32,8.25,7.14Zm-.9-7.18c-1.68,0-3.66,0-6.32,0-4.26,0-10.15.64-10.15,6,0,3.44,2.84,5.72,7.09,5.72,6.93,0,9.38-3.45,9.38-8.69Z" transform="translate(-335.9 -408.99)"/><path class="cls-2" d="M387.14,440H371.42v6.41H388.9l-.79,5.47H364.58V423.69H388v5.48H371.42v5.33h15.72Z" transform="translate(-335.9 -408.99)"/><path class="cls-2" d="M392.78,436.41c0-1.75,0-3.73,0-5.21h6.38c.08.58.16,1.83.19,2.67.95-1.43,2.83-3.23,6.86-3.23,5.09,0,8.1,3.15,8.1,8.48v12.74h-6.6v-11.7c0-2.37-.92-4.45-3.86-4.45s-4.46,2.12-4.46,5.84v10.31h-6.57Z" transform="translate(-335.9 -408.99)"/><path class="cls-2" d="M425.09,443.12a4.71,4.71,0,0,0,5.08,4.45c2.47,0,3.63-.76,4.38-2h6.54c-1.25,3.66-4.35,6.88-11,6.88-8.46,0-11.51-5.61-11.51-10.86,0-5.82,3.91-10.92,11.46-10.92,8,0,11.29,5.53,11.29,10.92,0,.52,0,.9,0,1.56Zm9.62-4c-.13-1.58-1-3.91-4.66-3.91-3.44,0-4.68,1.87-4.88,3.91Z" transform="translate(-335.9 -408.99)"/><path class="cls-2" d="M445.57,436.81c0-1.87,0-3.74,0-5.61h6.39c.11.73.19,3,.19,4.13,1.15-2.72,3.67-4.76,8-4.66v5.95c-4.67-.08-8,1.8-8,7.69v7.55h-6.54Z" transform="translate(-335.9 -408.99)"/><path class="cls-2" d="M485.73,449.55c0,7.44-3.28,11.58-12,11.58-9.18,0-10.78-5.08-11.15-7.35h6.62c.47,1.32,1.58,2.53,4.89,2.53,4.24,0,5.21-2.71,5.21-6.26v-.85c-1.21,1.66-2.88,2.92-6.88,2.92-6,0-10-4.71-10-10.33,0-6.42,4.62-11.15,10.53-11.15,4.34,0,5.85,1.72,6.36,2.88,0-.73.07-1.83.12-2.32h6.38c0,2,0,4.05,0,6.07Zm-16.66-8c0,3,1.76,5.55,5.13,5.55s5.18-2,5.18-5.75c0-3.37-1.71-5.65-5-5.65S469.07,438.26,469.07,441.56Z" transform="translate(-335.9 -408.99)"/><path class="cls-2" d="M491.37,422.08h6.53v5.23h-6.53Zm0,9.12h6.53v20.66h-6.53Z" transform="translate(-335.9 -408.99)"/><path class="cls-2" d="M508.73,443.12a4.7,4.7,0,0,0,5.08,4.45c2.47,0,3.63-.76,4.38-2h6.54c-1.25,3.66-4.36,6.88-11,6.88-8.46,0-11.51-5.61-11.51-10.86,0-5.82,3.91-10.92,11.46-10.92,8,0,11.29,5.53,11.29,10.92,0,.52,0,.9,0,1.56Zm9.62-4c-.13-1.58-1-3.91-4.66-3.91-3.44,0-4.69,1.87-4.88,3.91Z" transform="translate(-335.9 -408.99)"/><path class="cls-2" d="M549.75,446.07c0,2.69.12,5.35.16,5.79h-6.17a13.22,13.22,0,0,1-.24-2.33c-1.11,1.79-3.49,2.89-7.38,2.89-5.65,0-7.93-3.44-7.93-6.74,0-5.43,4.75-6.94,10.84-6.94h4.33v-.65c0-1.67-.73-3-3.76-3-2.83,0-3.45,1.05-3.72,2.24h-6.53c.17-2.55,2-6.67,10.15-6.67,9,0,10.25,4.22,10.25,7.68Zm-6.39-3.19c-.48,0-1.9,0-4.22,0-3.32,0-4.63.88-4.63,2.5,0,1.35,1.09,2.44,3.46,2.44,3.58,0,5.39-1.64,5.39-4.58Z" transform="translate(-335.9 -408.99)"/><path class="cls-2" d="M552.79,431.2h3.71v-6.09h6.57v6.09h4.78v4.74h-4.78v8.71c0,1.76.36,2.57,2.37,2.57a8.7,8.7,0,0,0,1.76-.13v4.48a15.92,15.92,0,0,1-4.14.46c-5.09,0-6.56-2.21-6.56-6.24v-9.85h-3.71Z" transform="translate(-335.9 -408.99)"/><path class="cls-2" d="M571.69,451.86V422.08h6.54v29.78Z" transform="translate(-335.9 -408.99)"/><path class="cls-2" d="M604.35,446.07c0,2.69.12,5.35.16,5.79h-6.17a13.22,13.22,0,0,1-.24-2.33c-1.11,1.79-3.49,2.89-7.38,2.89-5.65,0-7.93-3.44-7.93-6.74,0-5.43,4.75-6.94,10.84-6.94H598v-.65c0-1.67-.73-3-3.76-3-2.83,0-3.45,1.05-3.72,2.24H584c.17-2.55,2-6.67,10.15-6.67,9,0,10.25,4.22,10.25,7.68ZM598,442.88c-.48,0-1.9,0-4.22,0-3.32,0-4.63.88-4.63,2.5,0,1.35,1.09,2.44,3.46,2.44,3.58,0,5.39-1.64,5.39-4.58Z" transform="translate(-335.9 -408.99)"/><path class="cls-2" d="M614.74,445.51c.52,1.48,1.9,2.45,4.69,2.45s3.56-.87,3.56-1.84c0-1.16-.9-1.72-5-2.29-7.87-1.11-9-4-9-6.54,0-3.13,2.38-6.65,9.55-6.65s9.85,3.43,10.15,6.4h-6.43c-.29-1-1-2.08-4-2.08-2.48,0-2.91.94-2.91,1.67s.66,1.38,4.51,1.95c8.39,1.27,9.49,4.09,9.49,7,0,3.77-2.86,6.88-10.4,6.88-5.65,0-10.08-2.38-10.73-6.91Z" transform="translate(-335.9 -408.99)"/></svg>