<svg xmlns="http://www.w3.org/2000/svg" viewBox="0 0 332.59 91.61"><defs><style>.cls-1{stroke:#e72061;stroke-miterlimit:10;stroke-width:1.11px;}.cls-2{fill:#e72061;}</style></defs><g id="Ebene_2" data-name="Ebene 2"><g id="Ebene_1-2" data-name="Ebene 1"><line class="cls-1" y1="45.72" x2="332.59" y2="45.72"/><path class="cls-2" d="M25.86,75.63H11.69v7.54H27.33l-.76,5.25H5.47V58.77h21V64H11.69v6.35H25.86Z" transform="translate(-2.49 -5.76)"/><path class="cls-2" d="M31.44,71.77c0-1.89,0-4,0-5.61h6c.12.58.2,2.12.24,2.84.75-1.4,2.55-3.35,6.45-3.35,4.47,0,7.38,3,7.38,8.61V88.42H45.28V74.94c0-2.5-.84-4.31-3.56-4.31S37.61,72.09,37.61,76v12.4H31.44Z" transform="translate(-2.49 -5.76)"/><path class="cls-2" d="M62.11,78.61c0,2.78,1.4,5.5,4.46,5.5,2.57,0,3.3-1,3.89-2.37h6.17c-.79,2.72-3.22,7.19-10.22,7.19-7.33,0-10.51-5.48-10.51-11.32,0-7,3.58-12,10.73-12,7.65,0,10.25,5.53,10.25,11.08a13.87,13.87,0,0,1-.08,1.88Zm8.59-3.79c0-2.59-1.07-4.77-4.08-4.77s-4.14,2-4.38,4.77Z" transform="translate(-2.49 -5.76)"/><path class="cls-2" d="M81.5,72.2c0-2.21,0-4.18,0-6h6c.08.5.16,2.71.16,3.91,1-2.54,3.36-4.4,7.14-4.42v5.88c-4.47-.12-7.14,1.08-7.14,7.18v9.71H81.5Z" transform="translate(-2.49 -5.76)"/><path class="cls-2" d="M118.52,85.71c0,7.14-2.64,11.66-11.07,11.66-8.12,0-9.73-4.54-9.94-7.05h6.28c.43,1.53,1.56,2.57,3.94,2.57,4,0,4.75-2.44,4.75-6.8V85c-1.16,1.92-3,3.12-6.27,3.12-5.87,0-9.21-4.8-9.21-10.78,0-7,4.17-11.72,9.74-11.72,3.81,0,5.4,1.8,5.74,2.83,0-.6.2-2,.24-2.32h5.85c0,2,0,4.25,0,6.39Zm-15.19-8.62c0,3.83,1.92,6.09,4.64,6.09,3.71,0,4.7-2.55,4.7-6.28s-.66-6.32-4.57-6.32C105.43,70.58,103.33,72.64,103.33,77.09Z" transform="translate(-2.49 -5.76)"/><path class="cls-2" d="M124.28,57h6.17v5.5h-6.17Zm0,9.13h6.17V88.42h-6.17Z" transform="translate(-2.49 -5.76)"/><path class="cls-2" d="M141.18,78.61c0,2.78,1.4,5.5,4.47,5.5,2.57,0,3.3-1,3.88-2.37h6.17c-.79,2.72-3.22,7.19-10.21,7.19-7.33,0-10.51-5.48-10.51-11.32,0-7,3.58-12,10.73-12,7.64,0,10.24,5.53,10.24,11.08a13.87,13.87,0,0,1-.08,1.88Zm8.6-3.79c0-2.59-1.08-4.77-4.08-4.77s-4.14,2-4.39,4.77Z" transform="translate(-2.49 -5.76)"/><path class="cls-2" d="M178.91,82.67a50,50,0,0,0,.3,5.75h-5.89a9.17,9.17,0,0,1-.31-2.18c-.81,1.25-2.32,2.69-6.26,2.69-5.37,0-7.63-3.52-7.63-7,0-5.08,4.07-7.42,10.6-7.42h3.17V73.18c0-1.58-.56-3.13-3.42-3.13-2.6,0-3.17,1.1-3.46,2.71h-5.86c.34-4,2.78-7.15,9.55-7.11,6,0,9.21,2.36,9.21,7.66Zm-6-4.38h-2.51c-3.71,0-5.09,1.13-5.09,3.28a2.85,2.85,0,0,0,3.2,3c3.92,0,4.4-2.72,4.4-5.66Z" transform="translate(-2.49 -5.76)"/><path class="cls-2" d="M182.19,66.16h3.43v-6h6.16v6h4.36v4.63h-4.36v11c0,1.69.52,2.35,2.36,2.35a12.1,12.1,0,0,0,1.4-.07v4.23a13.83,13.83,0,0,1-4.14.43c-4.35,0-5.78-2.32-5.78-6.22V70.79h-3.43Z" transform="translate(-2.49 -5.76)"/><path class="cls-2" d="M200,88.42V57h6.17V88.42Z" transform="translate(-2.49 -5.76)"/><path class="cls-2" d="M230.25,82.67a50,50,0,0,0,.3,5.75h-5.89a9.17,9.17,0,0,1-.31-2.18c-.81,1.25-2.32,2.69-6.26,2.69-5.36,0-7.63-3.52-7.63-7,0-5.08,4.07-7.42,10.6-7.42h3.18V73.18c0-1.58-.57-3.13-3.43-3.13-2.6,0-3.17,1.1-3.46,2.71h-5.86c.34-4,2.78-7.15,9.55-7.11,6,0,9.21,2.36,9.21,7.66Zm-6-4.38h-2.51c-3.71,0-5.09,1.13-5.09,3.28a2.85,2.85,0,0,0,3.2,3c3.92,0,4.4-2.72,4.4-5.66Z" transform="translate(-2.49 -5.76)"/><path class="cls-2" d="M240.28,81.73c.47,1.77,1.92,2.77,4.22,2.77s3.1-.82,3.1-2.17-1-2-4.15-2.77c-7.25-1.79-8.43-4-8.43-7.17s2.31-6.74,9-6.74,9,3.68,9.23,6.7h-5.86c-.2-.82-.74-2.38-3.64-2.38-2,0-2.7.9-2.7,1.9s.69,1.65,4.31,2.49c7.42,1.73,8.47,4.27,8.47,7.53,0,3.69-2.8,7-9.59,7s-9.54-3.26-10-7.2Z" transform="translate(-2.49 -5.76)"/><path class="cls-2" d="M24.6,20.51H5.42V35.78h20.9l-.22.81H4.52V5.76h21v.82H5.42V19.69H24.6Z" transform="translate(-2.49 -5.76)"/><path class="cls-2" d="M49.11,29.93c0,2.15,0,5.76,0,6.66h-.9c0-.77-.09-4.25,0-6.19-1.42,4.56-4.17,6.71-9,6.71-4.12,0-8.55-1.89-8.55-8.9V15h.9V28.29c0,4.3,2.11,8,7.7,8,6.49,0,9-4.82,9-11V15h.91Z" transform="translate(-2.49 -5.76)"/><path class="cls-2" d="M57.1,22.36c0-3.31,0-5.76,0-7.35h.86c0,1.07.13,4.68.09,6.36a10,10,0,0,1,9-7v.94c-4.86.09-9,4.52-9,9.63V36.59H57.1Z" transform="translate(-2.49 -5.76)"/><path class="cls-2" d="M91.2,25.71c0,5.94-3.74,11.48-11,11.48-6.57,0-10.87-5-10.87-11.26,0-6.71,4.64-11.52,11-11.52C87,14.41,91.2,19.69,91.2,25.71Zm-20.94.22c0,6.15,4.39,10.45,10,10.45,6.32,0,10-4.9,10-10.62s-4-10.54-10-10.54S70.26,19.91,70.26,25.93Z" transform="translate(-2.49 -5.76)"/><path class="cls-2" d="M98.47,31V46.61h-.9V21.33c0-3,0-4.9,0-6.32h.86c.05.3.09,3.78.09,6.06a10,10,0,0,1,9.8-6.58c5.85,0,10.54,4.56,10.54,10.92,0,7.49-4.73,11.7-10.67,11.7C102.73,37.11,99.93,34.44,98.47,31Zm19.39-5.5c0-5.12-3.52-10.11-9.67-10.11-5.76,0-9.81,4.26-9.81,10.45,0,6.75,3.79,10.45,9.94,10.45C113.61,36.25,117.86,32.16,117.86,25.46Z" transform="translate(-2.49 -5.76)"/><path class="cls-2" d="M141.6,31.82a36.62,36.62,0,0,0,.26,4.77H141a25.16,25.16,0,0,1-.3-4.68c-1.21,3.31-4,5.28-9.38,5.28-6.06,0-8-3.65-8-6.57,0-5.34,5-6.84,11.14-6.84,3.87,0,5.07,0,6.28,0V21.67c0-3.35-1.68-6.45-7.44-6.45-5.34,0-7.23,2.5-7.83,5.81h-.9c.51-3.49,2.66-6.62,8.81-6.62s8.26,3.31,8.26,7.13Zm-.9-7.18c-1.68,0-3.66,0-6.32,0-4.26,0-10.15.64-10.15,6,0,3.44,2.84,5.71,7.09,5.71,6.93,0,9.38-3.43,9.38-8.68Z" transform="translate(-2.49 -5.76)"/></g></g></svg>